# xmcd
#
# Track frame offsets:
#	150
#	10948
#	22438
#	32853
#	44011
#	55101
#	69561
#	76806
#	87458
#	99475
#	113807
#	124921
#	138343
#	148749
#
# Disc length: 2139 seconds
#
# Revision: 0
# Processed by: cddbd v1.5.2PL0 Copyright (c) Steve Scherf et al.
# Submitted via: audiograbber 1.83.01
#
DISCID=c908590e
DTITLE=Reigning Sound - Love and Curses
DYEAR=1900
DGENRE=
TTITLE0=Brake It
TTITLE1=Trash Talk
TTITLE2=Call Me
TTITLE3=The Bells
TTITLE4=If I Can't Come Back
TTITLE5=Something To Hold Onto
TTITLE6=Dangerous Game
TTITLE7=Broken Things
TTITLE8=Debris
TTITLE9=Stick Up For Me
TTITLE10=Love Won't Leave You a Song
TTITLE11=Polly Anne
TTITLE12=Is It True?
TTITLE13=Banker and a Liar
EXTD=
EXTT0=
EXTT1=
EXTT2=
EXTT3=
EXTT4=
EXTT5=
EXTT6=
EXTT7=
EXTT8=
EXTT9=
EXTT10=
EXTT11=
EXTT12=
EXTT13=
PLAYORDER=
